<?xml version="1.0" encoding="UTF-8"?>
<svg id="Layer_1" data-name="Layer 1" xmlns="http://www.w3.org/2000/svg" viewBox="0 0 400 400">
  <defs>
    <style>
      .cls-1, .cls-2 {
        fill: none;
      }

      .cls-2 {
        stroke: #231f20;
        stroke-miterlimit: 10;
        stroke-width: 2.5px;
      }
    </style>
  </defs>
  <circle class="cls-1" cx="200" cy="200" r="200"/>
  <g>
    <path class="cls-2" d="M122.95,240.58c.35.01.76-.08,1.07-.25.33-.17.66-.48.87-.79.23-.34.41-.81.47-1.22.07-.47.04-1.02-.08-1.48-.13-.52-.41-1.09-.72-1.53-.36-.5-.88-.99-1.38-1.34-.57-.39-1.3-.72-1.96-.91-.74-.21-1.63-.3-2.4-.27-.85.04-1.82.24-2.62.53-.88.32-1.83.85-2.58,1.41-.82.62-1.64,1.47-2.25,2.29-.65.89-1.25,2.04-1.62,3.08-.4,1.13-.67,2.49-.74,3.68-.08,1.28.05,2.77.34,4.02.3,1.34.87,2.83,1.53,4.03.7,1.28,1.72,2.64,2.74,3.68,1.09,1.1,2.52,2.19,3.86,2.96,1.42.81,3.19,1.51,4.78,1.91,1.68.42,3.67.63,5.4.58,1.82-.05,3.9-.4,5.63-.94,1.82-.56,3.83-1.5,5.43-2.53,1.68-1.08,3.44-2.59,4.77-4.08,1.39-1.56,2.75-3.56,3.68-5.43.97-1.95,1.78-4.35,2.19-6.48.43-2.23.58-4.85.41-7.12-.18-2.35-.75-5.03-1.54-7.25-.82-2.31-2.13-4.83-3.54-6.84-1.46-2.08-3.45-4.25-5.41-5.87-2.02-1.68-4.61-3.3-7-4.39-2.48-1.13-5.5-2.04-8.19-2.48-2.78-.45-6.04-.54-8.83-.25-2.89.3-6.16,1.1-8.87,2.15-2.79,1.08-5.83,2.76-8.24,4.54-2.48,1.83-5.05,4.32-6.97,6.74-1.97,2.49-3.85,5.65-5.11,8.57-1.29,3-2.3,6.65-2.76,9.89-.47,3.33-.5,7.22-.08,10.55.43,3.42,1.45,7.29,2.75,10.48,1.34,3.28,3.39,6.83,5.54,9.65,2.21,2.89,5.19,5.86,8.07,8.07,2.96,2.26,6.7,4.41,10.14,5.82,3.53,1.45,7.81,2.57,11.59,3.05,3.87.49,8.4.45,12.27-.08,3.96-.55,8.42-1.79,12.1-3.36,3.76-1.6,7.84-4.02,11.05-6.54,3.29-2.58,6.66-6.05,9.16-9.4,2.55-3.42,4.96-7.74,6.54-11.71,1.61-4.05,2.83-8.96,3.33-13.29.51-4.42.41-9.58-.25-13.99-.67-4.49-2.14-9.55-3.96-13.71-1.86-4.25-4.64-8.84-7.54-12.46-2.96-3.69-6.92-7.47-10.73-10.26-3.89-2.85-8.79-5.52-13.28-7.25-4.58-1.77-10.11-3.1-14.99-3.62-4.97-.53-10.76-.37-15.7.42-5.03.8-10.68,2.49-15.33,4.57-4.73,2.12-9.84,5.27-13.86,8.54-4.09,3.33-8.28,7.78-11.36,12.06-3.14,4.35-6.07,9.83-7.97,14.85-1.93,5.1-3.36,11.26-3.9,16.69-.55,5.52-.33,11.95.58,17.42.92,5.56,2.83,11.81,5.17,16.95,2.37,5.22,5.9,10.84,9.55,15.26,3.71,4.49,8.65,9.08,13.39,12.46,4.82,3.43,10.88,6.63,16.42,8.68,5.63,2.09,12.42,3.63,18.4,4.19,6.07.56,13.13.29,19.14-.75,6.1-1.05,12.94-3.18,18.56-5.77,5.7-2.63,11.85-6.53,16.67-10.55,4.89-4.08,9.89-9.52,13.55-14.73,3.72-5.29,7.18-11.92,9.4-17.99,2.25-6.15,3.89-13.57,4.49-20.1.53-5.8,2.03-12.37,4.07-17.83,2-5.37,5.12-11.24,8.45-15.9,3.28-4.59,7.73-9.37,12.09-12.95,4.29-3.52,9.74-6.92,14.8-9.21,4.97-2.25,11.02-4.09,16.41-4.97,5.3-.87,11.51-1.06,16.85-.52,5.25.53,11.2,1.93,16.13,3.81,4.84,1.84,10.13,4.69,14.33,7.73,4.12,2.99,8.41,7.04,11.62,10.99,3.15,3.88,6.18,8.82,8.21,13.39,1.99,4.49,3.61,9.94,4.36,14.79.74,4.76.88,10.34.36,15.13-.51,4.7-1.81,10.02-3.52,14.42-1.68,4.32-4.27,9.03-7.02,12.76-2.69,3.66-6.34,7.46-9.9,10.29-3.48,2.77-7.9,5.44-11.99,7.21-4,1.74-8.86,3.13-13.18,3.76-4.23.62-9.17.7-13.41.19-4.15-.49-8.84-1.68-12.72-3.24-3.79-1.52-7.92-3.84-11.19-6.3-3.19-2.4-6.5-5.65-8.96-8.8-2.4-3.08-4.69-6.98-6.21-10.58-1.48-3.52-2.65-7.78-3.16-11.56-.5-3.69-.51-8-.03-11.7.47-3.6,1.56-7.67,2.95-11.02,1.36-3.27,3.42-6.82,5.58-9.62,2.11-2.73,4.95-5.54,7.7-7.63,2.68-2.03,6.06-3.95,9.18-5.21,3.03-1.22,6.7-2.17,9.94-2.55,3.15-.37,6.84-.33,9.98.14,3.05.45,6.49,1.43,9.32,2.67,2.74,1.2,5.72,2.99,8.05,4.87,2.26,1.82,4.59,4.25,6.29,6.6,1.65,2.28,3.21,5.14,4.2,7.77.96,2.55,1.69,5.62,1.95,8.33.25,2.62.14,5.67-.3,8.26-.43,2.5-1.31,5.32-2.38,7.62-1.04,2.22-2.57,4.61-4.15,6.48-1.53,1.8-3.56,3.63-5.51,4.96-1.87,1.28-4.22,2.46-6.37,3.2-2.06.71-4.54,1.21-6.71,1.34-2.08.13-4.5-.04-6.54-.47-1.96-.41-4.14-1.18-5.92-2.1-1.7-.88-3.51-2.14-4.91-3.44-1.33-1.24-2.68-2.86-3.63-4.41-.91-1.47-1.72-3.3-2.2-4.97-.45-1.58-.73-3.46-.74-5.1,0-1.55.22-3.33.63-4.83.39-1.41,1.05-2.97,1.81-4.22.71-1.17,1.72-2.41,2.72-3.34.94-.87,2.16-1.73,3.31-2.3,1.07-.54,2.38-.98,3.56-1.2,1.09-.2,2.38-.25,3.48-.14,1.02.11,2.17.4,3.11.8.86.36,1.8.93,2.51,1.53.65.55,1.31,1.29,1.77,2.01.41.65.78,1.47.97,2.21.17.67.25,1.47.2,2.16-.05.61-.22,1.31-.47,1.86-.22.49-.58,1.02-.96,1.39-.34.33-.8.64-1.24.81-.39.15-.88.23-1.29.2-.37-.03-.8-.16-1.12-.36-.3-.19-.59-.5-.75-.81-.16-.31-.45-.62-.75-.81-.32-.2-.74-.33-1.12-.36-.42-.03-.9.05-1.29.2-.44.17-.91.48-1.24.81-.39.38-.74.9-.96,1.39-.25.56-.42,1.25-.47,1.86-.05.69.03,1.49.2,2.16.19.75.56,1.57.97,2.21.46.72,1.12,1.46,1.77,2.01.72.6,1.65,1.16,2.51,1.53.94.4,2.09.69,3.11.8,1.1.12,2.39.06,3.48-.14,1.18-.21,2.49-.66,3.56-1.2,1.15-.58,2.37-1.43,3.31-2.3,1.01-.93,2.01-2.17,2.72-3.34.76-1.25,1.42-2.81,1.81-4.22.41-1.49.64-3.28.63-4.83,0-1.64-.29-3.52-.74-5.1-.48-1.66-1.29-3.49-2.2-4.96-.95-1.55-2.3-3.17-3.63-4.41-1.4-1.3-3.22-2.56-4.91-3.44-1.78-.92-3.96-1.69-5.92-2.1-2.04-.43-4.46-.6-6.54-.47-2.17.14-4.65.64-6.71,1.34-2.15.74-4.5,1.92-6.37,3.2-1.95,1.33-3.98,3.16-5.51,4.96-1.59,1.87-3.12,4.26-4.15,6.48-1.08,2.3-1.95,5.11-2.38,7.62-.45,2.59-.55,5.64-.3,8.26.26,2.71.98,5.78,1.95,8.33,1,2.63,2.55,5.5,4.2,7.77,1.71,2.35,4.03,4.78,6.29,6.6,2.33,1.88,5.31,3.67,8.05,4.87,2.83,1.24,6.27,2.22,9.32,2.67,3.14.46,6.82.51,9.98.14,3.25-.39,6.91-1.33,9.94-2.55,3.12-1.26,6.5-3.18,9.18-5.21,2.75-2.08,5.59-4.9,7.7-7.63,2.17-2.8,4.22-6.35,5.58-9.62,1.4-3.35,2.48-7.42,2.95-11.02.48-3.69.47-8.01-.03-11.7-.51-3.78-1.68-8.04-3.16-11.56-1.51-3.6-3.81-7.5-6.21-10.58-2.46-3.15-5.76-6.4-8.96-8.8-3.27-2.46-7.4-4.78-11.19-6.3-3.88-1.56-8.57-2.75-12.72-3.24-4.24-.5-9.19-.43-13.41.19-4.31.63-9.17,2.03-13.18,3.76-4.09,1.77-8.51,4.44-11.99,7.21-3.55,2.83-7.2,6.63-9.9,10.29-2.75,3.73-5.33,8.44-7.02,12.76-1.72,4.4-3.01,9.73-3.52,14.42-.52,4.79-.38,10.37.36,15.13.76,4.85,2.37,10.31,4.36,14.79,2.03,4.57,5.06,9.51,8.21,13.39,3.21,3.96,7.49,8.01,11.62,10.99,4.2,3.04,9.49,5.89,14.33,7.73,4.93,1.88,10.88,3.28,16.13,3.81,5.34.54,11.55.34,16.85-.53,5.39-.88,11.44-2.72,16.41-4.97,5.05-2.29,10.51-5.69,14.8-9.21,4.36-3.58,8.81-8.36,12.09-12.95,3.33-4.66,6.44-10.53,8.45-15.9,2.04-5.45,3.54-12.03,4.09-17.83.56-5.89.3-12.74-.69-18.57-1.01-5.92-3.06-12.57-5.57-18.02-2.55-5.54-6.32-11.51-10.22-16.2-3.96-4.76-9.23-9.62-14.28-13.19-5.13-3.62-11.58-7-17.47-9.16-5.98-2.2-13.18-3.81-19.53-4.38-6.44-.58-13.92-.26-20.28.86-6.46,1.13-13.7,3.41-19.65,6.16-5.29,2.44-11.73,4.43-17.48,5.39-5.65.95-12.29,1.19-17.99.64-5.61-.54-11.98-2.01-17.26-4-5.19-1.95-10.87-4.97-15.38-8.21-4.43-3.18-9.05-7.5-12.51-11.73-3.4-4.15-6.68-9.44-8.88-14.33-2.16-4.81-3.93-10.66-4.77-15.87-.83-5.12-1-11.12-.47-16.28.52-5.06,1.89-10.81,3.71-15.56,1.79-4.67,4.55-9.76,7.49-13.81,2.89-3.97,6.81-8.09,10.63-11.18,3.75-3.02,8.52-5.93,12.92-7.88,4.32-1.91,9.58-3.45,14.25-4.16,4.58-.7,9.95-.82,14.56-.3,4.52.5,9.63,1.76,13.86,3.43,4.14,1.63,8.66,4.13,12.24,6.78,3.5,2.6,7.14,6.11,9.84,9.53,2.65,3.35,5.19,7.6,6.88,11.52,1.65,3.84,2.97,8.5,3.56,12.64.58,4.05.63,8.78.14,12.84-.48,3.97-1.64,8.45-3.14,12.16-1.47,3.62-3.7,7.56-6.06,10.67-2.31,3.04-5.41,6.18-8.43,8.51-2.95,2.28-6.68,4.45-10.11,5.87-3.35,1.39-7.42,2.49-11.02,2.95-3.51.46-7.62.45-11.12-.03-3.42-.46-7.28-1.51-10.45-2.86-3.09-1.31-6.45-3.28-9.1-5.35-2.57-2.01-5.23-4.72-7.18-7.34-1.9-2.54-3.7-5.76-4.87-8.71-1.14-2.87-2.01-6.34-2.35-9.41-.33-2.98-.27-6.45.19-9.41.44-2.87,1.39-6.1,2.57-8.75,1.15-2.57,2.85-5.35,4.63-7.53,1.72-2.11,4.02-4.27,6.24-5.85,2.14-1.53,4.84-2.96,7.31-3.87,2.38-.88,5.26-1.53,7.79-1.75,2.44-.21,5.28-.08,7.69.36,2.32.42,4.93,1.26,7.05,2.29,2.04.98,4.25,2.42,5.96,3.92,1.64,1.43,3.31,3.33,4.52,5.14,1.15,1.74,2.22,3.92,2.87,5.9.62,1.9,1.05,4.18,1.14,6.17.09,1.91-.1,4.11-.52,5.97-.4,1.77-1.14,3.75-2,5.35-.82,1.52-2,3.14-3.2,4.39-1.14,1.18-2.63,2.36-4.04,3.19-1.34.78-3,1.48-4.5,1.87-1.41.37-3.1.57-4.56.54-1.37-.03-2.94-.28-4.25-.69-1.23-.38-2.58-1.01-3.65-1.72-1-.66-2.04-1.57-2.82-2.48-.72-.84-1.41-1.93-1.86-2.95-.41-.93-.74-2.08-.86-3.09-.12-.93-.1-2.02.07-2.94.15-.84.46-1.78.85-2.54.36-.68.88-1.41,1.43-1.95.49-.48,1.15-.95,1.77-1.25.55-.26,1.24-.47,1.85-.53.54-.05,1.17,0,1.69.14.45.13.96.37,1.33.67.32.26.64.64.82,1.02.16.34.26.77.25,1.15-.01.35-.14.76-.32,1.05-.19.3-.31.7-.32,1.05-.02.37.08.81.25,1.15.18.38.5.76.82,1.02.37.3.87.54,1.33.67.52.15,1.15.19,1.69.14.61-.06,1.3-.26,1.85-.53.62-.3,1.28-.77,1.77-1.25.55-.54,1.08-1.26,1.43-1.95.39-.76.7-1.7.85-2.54.16-.92.18-2.01.07-2.94-.13-1.01-.45-2.16-.86-3.09-.45-1.01-1.14-2.1-1.86-2.95-.77-.91-1.82-1.83-2.82-2.48-1.07-.71-2.42-1.34-3.65-1.72-1.31-.41-2.88-.66-4.25-.69-1.46-.03-3.14.17-4.56.54-1.5.39-3.16,1.08-4.5,1.87-1.41.83-2.91,2.01-4.04,3.19-1.2,1.24-2.38,2.87-3.2,4.39-.86,1.6-1.6,3.58-2,5.35-.42,1.86-.61,4.07-.52,5.97.09,2,.52,4.27,1.14,6.17.65,1.98,1.71,4.16,2.87,5.9,1.2,1.82,2.88,3.71,4.52,5.14,1.71,1.49,3.91,2.93,5.96,3.92,2.13,1.02,4.73,1.86,7.05,2.29,2.41.44,5.25.57,7.69.36,2.53-.22,5.41-.87,7.79-1.75,2.47-.91,5.16-2.34,7.31-3.87,2.22-1.58,4.52-3.74,6.24-5.85,1.78-2.18,3.49-4.96,4.63-7.53,1.18-2.65,2.13-5.88,2.57-8.75.46-2.96.52-6.43.19-9.41-.34-3.07-1.22-6.54-2.35-9.41-1.17-2.95-2.97-6.17-4.87-8.71-1.96-2.62-4.61-5.32-7.18-7.34-2.64-2.07-6-4.04-9.1-5.35-3.18-1.34-7.04-2.39-10.45-2.86-3.51-.48-7.61-.48-11.12-.03-3.6.47-7.67,1.56-11.02,2.95-3.44,1.43-7.17,3.6-10.12,5.87-3.02,2.33-6.13,5.47-8.43,8.51-2.36,3.11-4.59,7.05-6.06,10.67-1.5,3.7-2.66,8.19-3.14,12.16-.5,4.06-.44,8.79.14,12.84.59,4.14,1.91,8.8,3.56,12.64,1.69,3.92,4.23,8.17,6.88,11.52,2.71,3.42,6.34,6.93,9.84,9.53,3.58,2.65,8.09,5.15,12.24,6.78,4.23,1.66,9.34,2.92,13.86,3.43,4.61.51,9.98.4,14.56-.3,4.67-.72,9.93-2.26,14.25-4.16,4.41-1.94,9.17-4.85,12.92-7.88,3.82-3.08,7.74-7.21,10.63-11.18,2.94-4.04,5.7-9.14,7.49-13.81,1.82-4.75,3.19-10.49,3.71-15.56.53-5.16.36-11.16-.47-16.28-.84-5.21-2.6-11.06-4.77-15.87-2.2-4.89-5.48-10.18-8.88-14.33-3.46-4.22-8.07-8.54-12.51-11.72-4.51-3.23-10.18-6.26-15.38-8.21-5.28-1.98-11.65-3.45-17.26-4-5.7-.55-12.34-.31-17.99.64-5.74.96-12.19,2.95-17.48,5.37-5.38,2.46-11.18,6.11-15.73,9.88-4.62,3.83-9.35,8.94-12.82,13.84-3.52,4.97-6.81,11.23-8.92,16.95-2.14,5.8-3.72,12.8-4.28,18.96-.57,6.25-.27,13.52.8,19.71,1.09,6.28,3.3,13.32,5.98,19.1,2.72,5.86,6.74,12.18,10.88,17.14,4.21,5.03,9.8,10.16,15.16,13.94,4.76,3.36,9.7,7.95,13.41,12.44,3.65,4.42,7.17,10.05,9.55,15.26,2.34,5.13,4.25,11.38,5.17,16.95.91,5.47,1.13,11.9.58,17.42-.54,5.43-1.97,11.59-3.9,16.69-1.9,5.02-4.83,10.5-7.97,14.85-3.08,4.28-7.27,8.73-11.36,12.06-4.02,3.27-9.13,6.43-13.86,8.54-4.65,2.08-10.3,3.77-15.33,4.57-4.94.78-10.73.94-15.7.42-4.88-.52-10.41-1.85-14.99-3.62-4.49-1.74-9.4-4.41-13.28-7.25-3.81-2.79-7.78-6.57-10.73-10.26-2.9-3.62-5.69-8.21-7.54-12.46-1.82-4.16-3.29-9.22-3.96-13.71-.66-4.4-.76-9.56-.25-13.99.5-4.33,1.72-9.24,3.33-13.29,1.58-3.97,3.98-8.29,6.54-11.71,2.5-3.35,5.88-6.82,9.16-9.4,3.21-2.52,7.29-4.94,11.05-6.54,3.68-1.56,8.14-2.81,12.1-3.36,3.87-.54,8.39-.57,12.27-.08,3.78.48,8.06,1.6,11.59,3.05,3.44,1.41,7.19,3.56,10.14,5.82,2.88,2.21,5.86,5.18,8.07,8.07,2.15,2.81,4.2,6.37,5.54,9.65,1.31,3.19,2.33,7.06,2.75,10.48.42,3.33.39,7.23-.08,10.55-.46,3.24-1.47,6.88-2.76,9.89-1.25,2.92-3.13,6.08-5.11,8.57-1.92,2.42-4.49,4.91-6.97,6.74-2.41,1.78-5.45,3.46-8.24,4.54-2.71,1.05-5.98,1.85-8.87,2.15-2.8.29-6.06.21-8.83-.25-2.69-.44-5.71-1.35-8.19-2.48-2.39-1.09-4.98-2.71-7-4.39-1.95-1.63-3.95-3.79-5.41-5.87-1.4-2.01-2.71-4.53-3.54-6.84-.79-2.22-1.37-4.9-1.54-7.25-.17-2.26-.02-4.89.41-7.12.42-2.14,1.22-4.53,2.19-6.48.93-1.87,2.28-3.88,3.68-5.43,1.33-1.49,3.09-3,4.78-4.08,1.61-1.03,3.61-1.97,5.43-2.53,1.74-.54,3.82-.89,5.63-.94,1.73-.05,3.72.16,5.4.58,1.59.4,3.36,1.1,4.78,1.91,1.35.77,2.78,1.86,3.86,2.96,1.02,1.04,2.04,2.4,2.74,3.68.66,1.2,1.23,2.69,1.53,4.03.28,1.25.41,2.74.34,4.02-.07,1.19-.34,2.56-.74,3.68-.37,1.04-.97,2.19-1.62,3.08-.6.83-1.43,1.68-2.25,2.29-.75.56-1.7,1.09-2.58,1.41-.8.29-1.77.49-2.62.53-.77.03-1.66-.06-2.4-.27-.66-.19-1.4-.52-1.96-.91-.5-.35-1.02-.84-1.38-1.34-.31-.44-.59-1.01-.72-1.53-.12-.46-.15-1.02-.08-1.48.06-.41.24-.88.47-1.22.21-.31.54-.61.87-.79.31-.16.72-.26,1.07-.25Z"/>
    <circle class="cls-1" cx="199" cy="200" r="156.75"/>
  </g>
</svg>