<?xml version="1.0" encoding="UTF-8"?>
<svg id="Layer_1" data-name="Layer 1" xmlns="http://www.w3.org/2000/svg" viewBox="0 0 391.19 392.29">
  <defs>
    <style>
      .cls-1 {
        fill: #231f20;
      }
    </style>
  </defs>
  <path class="cls-1" d="M345.55,111.13c-.97-1.92-2.06-3.46-2.41-4.15-.24-.47-.05-.8.45-1.06.38-.19.99-.07,1.59.89.96,1.6,1.5,1.57,4.05.29l13.99-7.05c2.7-1.36,3.02-1.84,2.51-2.84-.35-.69-.93-1.23-1.23-1.82-.33-.66-.22-.91.18-1.12.47-.24.8-.21,1.25.2.6.64,2.09,2.26,5.75,9.52,1.16,2.29,2.35,4.89,2.81,7.53.95,5.56-.92,11.62-7.02,14.7-5.82,2.93-11.4.86-14.83-2.58-1.91-1.91-3.24-4.4-4.3-6.5-1.3-2.58-1.92-4.28-2.79-6.01ZM371.85,109.86c-.32-2.6-.83-3.6-2.26-6.43-.51-1.01-.98-1.16-2.08-.61l-16.03,8.08c-2.52,1.27-2.68,3.6-1.22,6.49,2.63,5.22,8.86,7.8,15.34,4.53,4.62-2.33,6.86-7.44,6.26-12.07Z"/>
  <path class="cls-1" d="M350.14,140.77c-.39-1.17-.13-2.44,1.04-2.82,1.27-.42,2.33.2,2.67,1.24.22.67.33,1.23.38,1.39.15.47.42.71,1.36.85,1.36.07,2.16.14,2.53.02.43-.14,1.14-.6,2.33-1.47,3.31-2.57,5.66-4.68,7.69-6.27,2.49-2.12,2.68-2.66,2.63-3.5-.04-.8.13-1.08.66-1.26.5-.17.78.11.93.58.21.64.4,1.32.99,3.12.58,1.77,1.1,3.12,1.3,3.73.14.44,0,.78-.47.93-.47.15-.74.02-1.11-.9-.34-.93-.68-1.18-1.29-.99-.47.15-.92.49-1.81,1.26l-6.3,4.96c-.18.13-.24.3-.19.43.06.17.22.22.41.24l7.3.56c.99.08,2.12,0,2.58-.15.57-.19,1.02-.63.87-1.4-.2-1.05-.12-1.37.35-1.52.37-.12.7,0,.86.46l.99,3.01c.39,1.17.5,1.39.71,2.03.18.54-.08.77-.38.87-.5.17-.7.12-1.1-.53-.32-.64-.69-.74-4.32-1.18-3.64-.36-12.35-1.24-17.97-1.54-2.35-.15-3.16-.7-3.64-2.18Z"/>
  <path class="cls-1" d="M378.14,155.93c1.81,1.32,2.83,2.62,3.24,4.59.67,3.28-.84,5.74-4.06,6.33l-7.55,1.4c-2.32.44-2.44.71-2.31,1.73.07,1.06-.05,1.34-.6,1.45-.48.1-.74-.1-.83-.55-.13-.62-.18-1.76-.55-3.59-.37-1.83-.78-2.79-.92-3.44-.11-.55.13-.75.62-.85.45-.09.71.11,1.12,1.28.42.99.76,1.07,4.04.43l5.51-1.02c2.59-.49,3.15-2.51,2.75-4.48-.29-1.45-1.09-2.54-1.7-3.07-.24-.28-.94-.56-2.12-.32l-6.28,1.28c-3.11.63-3.39.83-3.26,2.53.07,1.06-.09,1.31-.57,1.41-.48.1-.73-.07-.81-.45-.14-.69-.21-2.26-.59-4.12-.37-1.79-.83-2.64-.96-3.29-.11-.52.13-.75.58-.84.45-.09.7.07,1.17,1.16.33.72.65.88,3.13.37l5.45-1.11c2-.41,2.32-.62,2.36-1.27.04-.33.04-.51.05-.84,0-.21.28-.38.56-.44.24-.05.59-.08.75.17.43.52,1.02,1.3,1.77,1.98,1.03.83,1.73,1.08,2.06,1.27.2.1.36.18.43.52.08.41-.1.74-.69.86-.24.05-.46.02-.99.09l-.59.09c-.49.06-.63.45-.21.73Z"/>
  <path class="cls-1" d="M381.67,175.03c1.37,1.54,2.3,3.3,2.49,5.51.23,2.67-.63,4.51-3.69,4.77-1.72.15-5.64.2-8.02.41-1.61.14-2.26.44-2.16,1.6s.83,1.48.88,2.01c.02.28-.17.47-.56.51-1.37.12-3.08-1.64-3.25-3.68-.07-.81.12-1.46.46-2.02.62-1.04,1.24-1.17,1.21-1.59-.02-.18-.33-.5-.71-.86-1.22-1.06-1.92-2.59-2.07-4.38-.18-2.14.91-3.37,3.05-3.55,3.72-.32,6.25,3.98,7.94,7.66.17.41.41.64.97.66.35,0,.67-.02,1.06-.06,2.25-.19,3.32-.89,3.17-2.61-.12-1.37-.63-2.03-1.35-2.5-.67-.44-1.56-.47-2.22-.69-.9-.24-1.69-1.2-1.8-2.39-.04-.46.2-.94.8-.99,1.16-.1,2.62.8,3.79,2.18ZM368.86,179.74c.13,1.54,1.36,2.67,2.56,2.64,1.44-.12,3.31-.18,3.87-.23.46-.04.69-.2.66-.52-.09-.98-2.21-4.65-4.84-4.43-1.54.13-2.38,1.12-2.26,2.53Z"/>
  <path class="cls-1" d="M381.75,208.57c-.01.25.26.44.49.73,1.49,1.68,2.16,2.84,2.02,5.09-.21,3.55-2.61,5.31-5.98,5.08l-8.04-.55c-1.86-.15-2.1.3-2.34,1.38-.16.98-.39,1.25-.92,1.21-.46-.03-.62-.25-.59-.71.04-.67.33-2.06.44-3.89.11-1.9.04-3.1.09-3.84.03-.49.25-.73.75-.7.49.03.62.32.65,1.49.09,1.38.4,1.61,3.07,1.77l5.66.37c2.88.21,4.56-.22,4.74-3.25.1-1.76-.33-2.74-.89-3.44-.26-.33-.63-.6-2.25-.77l-7.31-.5c-2.32-.17-2.45.24-2.69,1.32-.19.91-.43,1.24-.92,1.21s-.62-.32-.59-.71c.04-.74.21-1.82.33-3.69.11-1.83.09-3.27.13-3.98.03-.49.22-.73.75-.7.46.03.62.28.69,1.45.06,1.34.26,1.6,3.03,1.8l6.29.44c2.78.2,3.86-.76,3.99-3.01.11-1.79-.6-3-.98-3.62-.32-.55-.73-.78-1.92-.86l-7.02-.52c-2.7-.2-2.89-.03-3.19,1.4-.2.94-.39,1.14-.81,1.12-.53-.03-.68-.36-.66-.74.04-.67.24-1.64.35-3.58.11-1.86.02-3.24.06-4.02.03-.49.29-.69.67-.67.46.03.64.43.85,1.67.12.85.63,1.31,3.44,1.51l5.58.44c2.04.16,2.4,0,2.65-.65l.29-.76c.04-.14.33-.19.68-.17.32.02.59.11.76.33.17.64.38,1.33.85,2.31.41.77,1.02,1.22,1.25,1.59.16.22.22.44.2.75-.02.39-.15.73-.75.7-.21-.01-.88-.09-1.16-.1l-.46-.03c-.32-.02-.5.04-.51.25,0,.11.06.22.16.36,1.42,1.67,2.22,2.92,2.1,4.99-.12,2.07-1.23,3.46-2.68,4.18-.25.13-.34.33-.35.47Z"/>
  <path class="cls-1" d="M365.69,230.92c-.33.98-.56,1.08-1.08.98-.48-.09-.74-.28-.66-.66.12-.66.52-1.98.87-3.85.34-1.8.36-3.23.49-3.92.09-.48.4-.61.82-.53.52.1.72.39.67,1.59-.05,1.24.2,1.43,3.55,2.07l5.99,1.13c1.07.2,1.72.18,2.15-.56l.34-.87c.07-.2.37-.25.65-.2.31.06.58.18.62.33.13.63.08,2.02.41,2.94.33,1.1,1.4,1.73,1.21,2.7-.04.21-.28.52-.8.42-.28-.05-2.9-.94-4.5-1.24l-6.99-1.31c-3.11-.59-3.36-.42-3.73.98ZM388.41,234.36c-1.25-.24-2.12-1.33-1.88-2.58s1.42-2.03,2.63-1.8c1.31.25,2.22,1.31,1.99,2.56-.26,1.38-1.46,2.05-2.74,1.81Z"/>
  <path class="cls-1" d="M373.67,252.37c-.98-.27-1.51-1.15-1.29-1.93.45-1.63,3.51-1.73,4-3.5.23-.82.27-2.16-.51-3.43-.84-1.44-2.34-2.77-5.5-3.64-2.1-.58-3.67-.21-5.13.59-1.37.86-2.43,2.32-2.85,3.82-.42,1.53-.27,2.41-.16,2.81.17.45.29.78.19,1.15-.09.31-.47.38-.74.31-.75-.21-2.05-3.27-1.12-6.63.51-1.83,1.67-3.63,3.3-4.79,1.82-1.29,4.19-1.94,6.98-1.17,5.16,1.43,8.19,6.98,6.74,12.21-.82,2.95-2.35,4.65-3.91,4.22Z"/>
  <path class="cls-1" d="M356.85,268.15c-2.61-1.15-3.06-1.01-4.23,1.13-.51.97-.87,1-1.32.8-.35-.16-.64-.47-.4-1.02.31-.71,1.61-2.95,2.45-4.85.87-1.96,1.51-4.11,1.89-4.97.29-.64.67-.74,1.19-.51.39.17.63.66.24,1.72-.97,2.46-.76,2.67,2.17,3.96l14.2,6.28c2.67,1.18,2.97,1.2,3.89-.44.55-.99,1-1.21,1.42-1.03.48.21.72.55.41,1.26-.36.81-1.02,2.4-1.89,4.36-.67,1.51-1.8,4.33-2.08,4.97-.17.39-.61.42-.96.27-.45-.2-.52-.57-.2-1.47.81-2.53.67-2.74-2-3.93l-14.78-6.54Z"/>
  <path class="cls-1" d="M359.13,285.56c.48,2.19.38,3.84-.62,5.58-1.67,2.9-4.44,3.74-7.24,2.04l-6.58-3.97c-2.02-1.21-2.3-1.09-2.87-.24-.65.84-.93.97-1.42.69-.43-.25-.49-.57-.26-.96.32-.55,1.03-1.44,1.97-3.05.93-1.62,1.26-2.61,1.6-3.19.28-.49.6-.47,1.02-.22.4.23.46.55,0,1.7-.35,1.02-.14,1.3,2.74,3.01l4.79,2.9c2.27,1.35,4.03.21,5.03-1.52.74-1.28.87-2.63.76-3.43,0-.36-.33-1.05-1.37-1.65l-5.55-3.21c-2.75-1.59-3.09-1.62-4.12-.27-.65.84-.94.92-1.37.67-.43-.25-.5-.54-.31-.87.35-.61,1.34-1.83,2.29-3.47.92-1.59,1.13-2.52,1.47-3.1.26-.46.6-.47.99-.24.4.23.47.52.11,1.65-.24.76-.1,1.08,2.1,2.35l4.82,2.79c1.77,1.02,2.14,1.08,2.62.62.25-.22.37-.36.59-.6.14-.17.46-.1.71.04.21.12.5.33.45.63-.03.68-.1,1.65.01,2.65.22,1.31.58,1.96.7,2.31.08.21.15.37-.03.68-.21.37-.57.49-1.08.19-.21-.12-.36-.29-.8-.58l-.5-.33c-.41-.28-.77-.08-.64.4Z"/>
  <path class="cls-1" d="M344.64,309.43c-.6-.44-2.31-1.73-2.49-1.9-.15-.15-.2-.45-.05-.65.35-.48,1.09-.3,1.77-.15,1.41.46,2.42.33,3.48-1.12,1.04-1.42.88-2.63-.23-3.44-1.25-.91-2.93-.05-4.95,1.05-2.36,1.33-4.57,2.2-6.79.58-2.19-1.6-3.58-4.71-.59-8.8,1.66-2.27,3-3.09,3.9-3.08.61,0,2.36,1.42,2.85,1.77.37.27.49.7.24,1.05-.29.4-.61.3-1.03.21-1.73-.44-3.62-.6-4.91,1.17-1.14,1.56-.83,3.28.4,4.17,1.34.98,2.69.31,5.29-.98,2.46-1.17,4.4-2.02,6.45-.53,2.56,1.87,2.46,5.41.18,8.41-1.83,2.5-2.97,2.63-3.51,2.24Z"/>
  <path class="cls-1" d="M331.12,306.77c3.01,2.61,6.29,5.91,7.09,6.61.51.44.68.4.96.08.18-.21.6-.64.81-.88.23-.27.58-.29.95.03.35.3.31.78-.13,1.66-.56,1.24-.55,2.79.43,4.66.18.39.1.74-.13,1.01-.37.43-.72.4-1.25-.06l-1.06-.92c-.59-.51-.84-.54-1.28-.03-.48.56-1.94,2.56-2.47,3.17-.35.4-.58.57-1.33-.08-.69-.6-.84-1.24-.47-1.66.25-.29,2.45-2.4,2.89-2.9.53-.61.32-1.07-.32-1.62,0,0-3.88-3.64-5.48-5.03-1.7-1.48-2.91-2.34-4.51-.5-.92,1.06-.89,1.79-1.24,2.19-.32.37-.65.27-.92.04-.72-.62-.37-3.12,1.38-5.14,1.52-1.76,3.78-2.59,6.07-.61Z"/>
  <path class="cls-1" d="M329.25,325.94c-.34,2.04-1.13,3.86-2.73,5.4-1.93,1.85-3.91,2.33-6.03.12-1.2-1.25-3.7-4.26-5.35-5.99-1.12-1.17-1.76-1.48-2.6-.68-.84.8-.63,1.58-1.01,1.95-.2.2-.48.16-.74-.12-.95-.99-.65-3.42.82-4.84.58-.56,1.21-.82,1.86-.91,1.2-.17,1.69.23,1.99-.06.13-.12.19-.57.22-1.09.06-1.62.81-3.12,2.11-4.36,1.55-1.49,3.19-1.4,4.68.15,2.58,2.69.82,7.36-.97,10.99-.21.39-.24.72.1,1.17.22.28.44.51.71.79,1.56,1.63,2.77,2.03,4.02.83.99-.95,1.18-1.77,1.1-2.62-.08-.8-.62-1.51-.85-2.16-.38-.85-.13-2.07.73-2.9.33-.32.86-.43,1.27,0,.8.84,1.02,2.54.68,4.32ZM317.54,318.92c-1.12,1.07-1.23,2.74-.45,3.65,1,1.04,2.21,2.46,2.6,2.87.32.33.59.41.82.19.71-.68,2.24-4.64.41-6.54-1.07-1.12-2.37-1.15-3.38-.17Z"/>
  <path class="cls-1" d="M322.62,345.64c.24-.09.43-.24.75-.35.16-.08.4.06.54.25.21.28.3.52.23.71-.27.52-.75,1.28-1.28,2.16-.75,1.28-1.04,2.07-1.46,2.39-.22.17-.79.29-.94.1-.28-.36-.61-1.04-1.43-2.18l-3.48-4.83c-.55-.73-1.35-1.84-1.78-2.41-.28-.36-.52-.4-.83-.16-.79.6-.67,2.32-3.03,4.11-1.74,1.32-3.79,1.82-5.79,1.57-2.25-.29-4.38-1.58-5.96-3.66-3.36-4.43-1.21-9.99,1.85-12.31,2.72-2.06,4.28-1.87,5.18-2.55.39-.3.04-1.18-.16-1.96-.09-.29-.06-.66.33-.96.45-.34.89-.1,1.23.35.11.14.53.88.8,1.29.85,1.3,1.87,2.82,2.79,4.03l10.7,14.12c.49.64.97.59,1.74.31ZM300.95,340.77c1.23,1.63,2.7,2.46,4.26,2.65,2.3.29,4.72-1.06,6.07-2.08,1.18-.89,1.15-1.58.42-2.53l-4.53-5.98c-1.62-2.13-4.28-2.15-6.33-.59-1.74,1.32-2.76,4.75.11,8.54Z"/>
  <path class="cls-1" d="M284.91,343.48c-.94.42-1.17.31-1.45-.14-.26-.42-.29-.73.04-.94.57-.35,1.81-.95,3.43-1.95,1.56-.96,2.63-1.91,3.23-2.28.42-.26.72-.11.94.25.28.45.2.79-.73,1.57-.96.8-.93,1.11.87,4.02l3.2,5.19c.57.93,1.03,1.39,1.86,1.21l.87-.33c.2-.08.44.1.58.34.17.27.25.55.17.68-.38.52-1.44,1.42-1.9,2.29-.59.99-.34,2.2-1.18,2.71-.18.11-.57.15-.85-.3-.15-.24-1.26-2.78-2.11-4.16l-3.74-6.06c-1.66-2.7-1.95-2.77-3.24-2.1ZM297.66,362.6c-.67-1.08-.44-2.46.64-3.12,1.08-.67,2.46-.31,3.1.74.7,1.14.53,2.53-.55,3.2-1.2.74-2.5.3-3.19-.81Z"/>
  <path class="cls-1" d="M274.73,348.94c-.98.4-1.27.31-1.5-.12-.18-.34-.18-.78.2-.98.62-.33,2.49-1.16,3.92-1.92,1.93-1.02,2.9-1.89,3.55-2.24.44-.23.71-.09.95.37.2.37.06.64-.83,1.44-1.18.94-1.2,1.19.4,4.21l8.45,15.97c.34.65.74.8,1.51.67.33-.05.5-.11.85-.13.19-.02.44.16.58.41.13.25.22.56.09.71-.33.5-1.28,1.35-1.9,2.12-.64.82-.93,1.41-1.43,1.67-.5.26-1.02.18-1.27-.29-.31-.59-1.17-2.89-2.29-5l-7.75-14.79c-1.42-2.68-1.77-2.89-3.55-2.11Z"/>
  <path class="cls-1" d="M264.82,353.59c-.99.29-1.2.15-1.42-.33-.2-.45-.19-.76.17-.92.61-.27,1.92-.71,3.66-1.48,1.67-.75,2.86-1.55,3.5-1.84.45-.2.73-.02.9.37.22.48.09.81-.93,1.46-1.05.66-1.07.98.33,4.1l2.49,5.56c.45,1,.83,1.52,1.69,1.44l.91-.21c.21-.05.42.16.53.42.13.29.18.58.08.7-.45.47-1.61,1.22-2.18,2.02-.72.9-.63,2.13-1.53,2.54-.19.09-.59.07-.8-.41-.11-.26-.88-2.92-1.55-4.4l-2.91-6.49c-1.29-2.89-1.57-3-2.94-2.5ZM274.94,374.21c-.52-1.16-.12-2.5,1.04-3.01,1.16-.52,2.47.01,2.98,1.14.55,1.22.19,2.58-.97,3.09-1.29.58-2.52-.03-3.05-1.22Z"/>
  <path class="cls-1" d="M260.61,357.46c1.36,3.74,2.62,8.23,2.98,9.22.23.63.4.68.79.54.26-.1.84-.27,1.14-.38.33-.12.65.03.82.49.16.43-.11.83-.92,1.39-1.09.81-1.83,2.17-1.89,4.29-.03.42-.27.7-.6.82-.53.19-.82,0-1.06-.66l-.48-1.32c-.26-.73-.47-.88-1.1-.65-.69.25-2.94,1.3-3.7,1.57-.5.18-.79.21-1.12-.72-.31-.86-.13-1.49.4-1.68.36-.13,3.31-.9,3.94-1.13.76-.28.8-.78.51-1.57,0,0-1.62-5.07-2.34-7.06-.77-2.12-1.41-3.46-3.69-2.63-1.32.48-1.65,1.13-2.15,1.31-.46.17-.7-.08-.83-.41-.33-.89,1.19-2.91,3.71-3.82,2.18-.8,4.57-.43,5.6,2.42Z"/>
  <path class="cls-1" d="M243.2,351.13c1.19-.31,2.44.01,2.76,1.21.34,1.29-.34,2.31-1.4,2.59-.68.18-1.24.25-1.42.3-.48.13-.74.38-.93,1.3-.16,1.35-.27,2.15-.18,2.52.12.44.53,1.17,1.33,2.42,2.36,3.46,4.32,5.93,5.79,8.05,1.96,2.62,2.49,2.84,3.33,2.84.8,0,1.07.19,1.21.74.13.51-.16.77-.64.9-.65.17-1.34.31-3.18.8-1.8.47-3.18.91-3.8,1.07-.44.12-.78-.05-.9-.53-.13-.48.03-.73.96-1.05.94-.29,1.22-.61,1.06-1.23-.13-.48-.43-.94-1.15-1.88l-4.57-6.59c-.12-.19-.29-.25-.42-.22-.17.04-.24.21-.26.4l-1.01,7.25c-.14.98-.14,2.11-.01,2.59.15.58.57,1.05,1.34.96,1.06-.13,1.38-.03,1.5.44.1.37-.03.7-.51.83l-3.07.8c-1.19.31-1.42.41-2.07.58-.55.14-.76-.13-.84-.43-.13-.51-.08-.71.59-1.07.65-.28.78-.64,1.44-4.24.58-3.61,1.99-12.25,2.63-17.84.3-2.34.89-3.11,2.39-3.5Z"/>
  <path class="cls-1" d="M218.29,375.03c-1.08.13-1.98.31-2.47.37-.49.06-1.04-.12-1.1-.61-.03-.21.06-.68.25-1.17.19-.77.38-1.54,1.01-1.61.77-.09,1.3-.08,2.32-.21,1.54-.18,2.35-.5,3.89-.68.49-.06,1.04.12,1.11.72.03.25-.06.68-.21,1.23-.16.76-.34,1.57-1.15,1.66-.49.06-2.54.16-3.65.3Z"/>
  <path class="cls-1" d="M195.29,365.9c2.14.14,4.02-.02,4.8.03.53.03.72.36.68.93-.03.42-.45.89-1.58.92-1.87.02-2.11.5-2.3,3.34l-1.03,15.64c-.2,3.02.05,3.53,1.18,3.61.77.05,1.53-.18,2.2-.14.74.05.9.27.87.73-.04.53-.23.8-.8.97-.86.19-3.01.65-11.12.12-2.56-.17-5.4-.46-7.92-1.4-5.27-2-9.55-6.7-9.1-13.51.43-6.5,5.05-10.26,9.75-11.46,2.62-.67,5.44-.56,7.79-.41,2.88.19,4.66.52,6.59.64ZM183.04,389.2c2.4,1.04,3.53,1.11,6.69,1.32,1.12.07,1.5-.25,1.58-1.48l1.17-17.92c.18-2.81-1.74-4.14-4.97-4.35-5.83-.38-11.22,3.68-11.69,10.91-.34,5.17,2.93,9.69,7.22,11.52Z"/>
  <path class="cls-1" d="M167.43,354.81c1.2.26,2.17,1.12,1.91,2.33-.29,1.31-1.35,1.9-2.42,1.67-.69-.15-1.22-.34-1.39-.38-.48-.11-.83,0-1.42.73-.75,1.13-1.22,1.79-1.3,2.17-.1.45-.07,1.28.08,2.76.53,4.15,1.15,7.25,1.49,9.81.56,3.22.93,3.66,1.67,4.04.71.37.87.66.74,1.21-.11.52-.49.61-.98.51-.65-.14-1.33-.33-3.19-.73-1.82-.4-3.25-.64-3.87-.77-.45-.1-.67-.4-.56-.88.11-.48.36-.64,1.34-.5.97.18,1.37.01,1.5-.61.1-.48.05-1.04-.17-2.2l-1.07-7.95c-.02-.22-.14-.36-.28-.39-.17-.04-.3.08-.41.23l-4.2,6c-.57.81-1.08,1.82-1.19,2.3-.13.59.03,1.2.76,1.46,1,.36,1.24.6,1.13,1.08-.08.38-.35.61-.83.5l-3.1-.68c-1.21-.26-1.45-.28-2.11-.42-.55-.12-.62-.46-.55-.77.11-.52.25-.67,1.01-.68.71.05.99-.22,3.21-3.12,2.16-2.95,7.34-10,10.46-14.69,1.33-1.95,2.21-2.36,3.73-2.03Z"/>
  <path class="cls-1" d="M140.14,371.21c-2.06.89-3.7,1.1-5.6.45-3.16-1.09-4.51-3.65-3.38-6.72l2.64-7.21c.8-2.22.63-2.46-.31-2.87-.95-.48-1.13-.73-.94-1.26.16-.47.46-.58.9-.43.6.21,1.61.74,3.37,1.35,1.76.61,2.8.75,3.43.96.53.18.57.5.41.96-.15.43-.45.55-1.67.32-1.07-.15-1.3.11-2.43,3.26l-1.93,5.26c-.9,2.48.56,3.99,2.45,4.65,1.4.48,2.75.35,3.51.1.36-.06.96-.52,1.35-1.66l2.1-6.06c1.04-3,1.01-3.34-.52-4.09-.95-.48-1.08-.75-.92-1.21.16-.47.43-.6.8-.47.67.23,2.05.97,3.85,1.59,1.73.6,2.69.63,3.32.85.5.17.57.5.42.93-.15.43-.42.56-1.6.42-.79-.09-1.08.11-1.91,2.51l-1.82,5.26c-.67,1.93-.65,2.31-.11,2.68.26.2.42.29.7.47.19.1.18.44.09.7-.08.23-.23.55-.53.56-.67.1-1.64.22-2.6.52-1.24.46-1.82.94-2.14,1.12-.19.12-.34.22-.67.1-.4-.14-.58-.46-.39-1.03.08-.23.22-.41.42-.9l.23-.56c.19-.45-.07-.77-.52-.55Z"/>
  <path class="cls-1" d="M121.89,364.5c-2.03.39-4.01.29-6.01-.67-2.41-1.16-3.55-2.85-2.22-5.61.75-1.55,2.71-4.95,3.75-7.11.7-1.46.77-2.17-.27-2.67-1.05-.51-1.7-.04-2.18-.27-.25-.12-.32-.39-.15-.74.6-1.24,2.98-1.81,4.82-.92.73.35,1.19.85,1.5,1.43.58,1.06.37,1.67.75,1.85.16.08.6-.02,1.1-.17,1.54-.51,3.21-.33,4.83.45,1.93.93,2.43,2.5,1.49,4.44-1.62,3.36-6.62,3.34-10.64,2.92-.44-.06-.76.03-1.06.5-.19.3-.32.59-.49.94-.98,2.03-.93,3.3.62,4.06,1.24.6,2.07.49,2.84.12.72-.36,1.2-1.1,1.73-1.55.67-.66,1.89-.84,2.97-.32.41.2.7.65.44,1.19-.5,1.05-2.02,1.84-3.81,2.15ZM124.38,351.07c-1.4-.67-3-.2-3.58.85-.63,1.3-1.53,2.94-1.78,3.44-.2.41-.18.7.11.83.89.43,5.12.48,6.27-1.9.67-1.4.25-2.62-1.02-3.23Z"/>
  <path class="cls-1" d="M92.92,347.36c-.2-.14-.51-.01-.88.03-2.21.4-3.55.36-5.4-.93-2.92-2.03-3.17-5-1.21-7.75l4.67-6.58c1.1-1.51.84-1.95.04-2.72-.75-.65-.86-.98-.56-1.42.26-.38.54-.4.91-.14.55.38,1.58,1.36,3.09,2.41,1.56,1.09,2.62,1.66,3.23,2.08.4.28.49.6.21,1-.28.4-.59.36-1.61-.22-1.23-.64-1.58-.5-3.11,1.7l-3.27,4.63c-1.68,2.35-2.19,4.01.29,5.74,1.45,1.01,2.51,1.15,3.4,1.04.42-.05.84-.23,1.83-1.52l4.24-5.97c1.36-1.89,1.07-2.22.27-2.99-.67-.64-.84-1.01-.56-1.42.28-.4.59-.36.91-.14.61.42,1.44,1.13,2.97,2.2,1.5,1.05,2.75,1.79,3.33,2.19.4.28.51.57.2,1-.26.38-.56.38-1.6-.17-1.18-.65-1.5-.62-3.12,1.65l-3.66,5.13c-1.62,2.26-1.36,3.68.49,4.97,1.47,1.03,2.87,1.05,3.6,1.05.64.01,1.05-.21,1.73-1.2l4.11-5.72c1.58-2.21,1.54-2.45.47-3.45-.7-.66-.77-.92-.53-1.27.3-.43.66-.4.98-.18.55.38,1.28,1.06,2.87,2.17,1.53,1.07,2.76,1.71,3.4,2.15.4.28.44.6.21.92-.26.38-.7.33-1.87-.14-.79-.34-1.44-.15-3.08,2.15l-3.29,4.54c-1.2,1.66-1.25,2.05-.83,2.6l.5.65c.1.11,0,.38-.21.67-.18.26-.4.45-.67.47-.64-.19-1.33-.37-2.41-.48-.87-.05-1.58.23-2.01.23-.27.02-.49-.04-.75-.22-.32-.22-.55-.51-.2-1,.12-.17.53-.7.69-.93l.26-.38c.18-.26.22-.45.05-.57-.09-.06-.21-.06-.39-.06-2.17.34-3.65.38-5.36-.81-1.71-1.19-2.31-2.85-2.17-4.47.03-.28-.11-.46-.22-.54Z"/>
  <path class="cls-1" d="M67.44,340.07c.84-.95,2.22-1.15,3.17-.31.95.83,1.02,2.25.21,3.18-.88,1.01-2.26,1.25-3.22.41-1.06-.93-1.03-2.3-.17-3.28ZM81.95,322.26c-.67-.78-.64-1.03-.29-1.43.32-.37.62-.49.91-.23.5.44,1.44,1.45,2.87,2.7,1.38,1.21,2.6,1.95,3.13,2.41.37.32.32.65.04.97-.35.4-.7.42-1.71-.24-1.04-.68-1.33-.56-3.58,2.01l-4.01,4.58c-.72.82-1.03,1.39-.61,2.14l.57.74c.14.17.03.45-.16.66-.21.24-.45.4-.6.36-.61-.21-1.79-.95-2.75-1.14-1.11-.28-2.2.32-2.94-.33-.16-.14-.31-.5.04-.9.19-.21,2.29-2.02,3.35-3.24l4.69-5.35c2.09-2.38,2.07-2.68,1.05-3.71Z"/>
  <path class="cls-1" d="M59.43,318.23c.73-.71,1.76-.72,2.32-.13,1.17,1.22-.29,3.91.98,5.22.59.61,1.72,1.33,3.21,1.3,1.67,0,3.57-.61,5.93-2.88,1.57-1.52,2.05-3.05,2.1-4.72-.05-1.62-.76-3.28-1.84-4.39-1.1-1.14-1.94-1.45-2.34-1.56-.47-.08-.82-.14-1.09-.42-.22-.23-.09-.6.11-.79.56-.54,3.86-.11,6.28,2.41,1.32,1.37,2.28,3.28,2.45,5.27.18,2.22-.46,4.6-2.54,6.61-3.85,3.72-10.18,3.5-13.94-.4-2.13-2.21-2.81-4.38-1.64-5.51Z"/>
  <path class="cls-1" d="M54.36,295.72c2.32-1.66,2.42-2.12,1.18-4.22-.58-.93-.42-1.26-.02-1.54.31-.22.73-.31,1.08.18.45.63,1.72,2.88,2.93,4.58,1.25,1.75,2.77,3.39,3.32,4.16.41.57.29.96-.16,1.29-.34.25-.89.21-1.61-.67-1.62-2.09-1.91-2.01-4.52-.14l-12.63,9.04c-2.38,1.7-2.54,1.95-1.6,3.57.57.98.54,1.48.16,1.74-.43.31-.84.34-1.29-.29-.51-.72-1.54-2.1-2.8-3.85-.96-1.35-2.81-3.75-3.22-4.32-.25-.34-.05-.74.26-.97.4-.29.76-.15,1.37.58,1.77,1.98,2.02,1.98,4.4.28l13.15-9.41Z"/>
  <path class="cls-1" d="M38.21,288.81c-2.13-.7-3.5-1.63-4.48-3.38-1.64-2.92-.96-5.72,1.93-7.27l6.76-3.64c2.07-1.12,2.11-1.43,1.67-2.35-.39-.99-.36-1.29.13-1.57.43-.24.74-.13.96.27.31.55.71,1.62,1.62,3.25.91,1.63,1.6,2.41,1.93,3,.28.49.1.75-.33.99-.4.22-.7.11-1.46-.88-.7-.82-1.05-.78-3.98.82l-4.93,2.65c-2.32,1.26-2.23,3.36-1.25,5.11.73,1.29,1.82,2.09,2.56,2.4.31.19,1.07.25,2.11-.34l5.59-3.14c2.76-1.55,2.97-1.83,2.33-3.41-.39-.99-.31-1.28.12-1.52.43-.24.72-.16.91.18.34.61.89,2.08,1.82,3.74.9,1.6,1.59,2.26,1.92,2.84.26.46.1.75-.3.98-.4.22-.69.14-1.47-.75-.53-.59-.88-.63-3.09.61l-4.85,2.73c-1.78,1-2.02,1.3-1.86,1.93.06.33.12.5.21.81.07.2-.15.45-.4.59-.22.12-.54.26-.77.07-.57-.37-1.37-.93-2.29-1.34-1.24-.48-1.98-.5-2.35-.58-.22-.04-.4-.06-.57-.37-.21-.37-.13-.74.39-1.03.21-.12.43-.16.91-.39l.54-.26c.45-.21.46-.62-.02-.76Z"/>
  <path class="cls-1" d="M25.05,264.17c.68-.29,2.67-1.1,2.91-1.17.21-.05.49.06.58.29.24.55-.3,1.09-.77,1.6-1.11.97-1.52,1.91-.81,3.57.69,1.62,1.82,2.1,3.08,1.56,1.42-.61,1.54-2.5,1.63-4.79.07-2.71.44-5.05,2.97-6.14,2.49-1.07,5.88-.68,7.87,3.99,1.11,2.59,1.13,4.15.65,4.93-.31.52-2.43,1.31-2.98,1.54-.42.18-.86.06-1.02-.33-.19-.45.06-.67.34-.99,1.26-1.27,2.36-2.81,1.5-4.82-.76-1.78-2.4-2.38-3.79-1.79-1.52.65-1.64,2.16-1.86,5.05-.26,2.71-.51,4.81-2.84,5.81-2.91,1.25-5.91-.65-7.33-4.14-1.22-2.85-.75-3.89-.13-4.16Z"/>
  <path class="cls-1" d="M34.26,253.94c-3.77,1.26-8.3,2.39-9.3,2.72-.63.21-.69.38-.56.78.09.27.25.85.35,1.15.11.33-.05.65-.51.8-.43.14-.82-.13-1.36-.96-.78-1.11-2.12-1.89-4.23-2.01-.42-.04-.69-.29-.8-.62-.18-.54.02-.83.69-1.05l1.34-.45c.74-.24.89-.45.68-1.08-.23-.7-1.21-2.97-1.47-3.74-.17-.5-.19-.79.75-1.1.87-.29,1.49-.09,1.67.45.12.37.81,3.33,1.02,3.96.26.77.76.83,1.56.56,0,0,5.11-1.48,7.12-2.15,2.14-.71,3.5-1.31,2.73-3.62-.45-1.34-1.08-1.68-1.25-2.18-.16-.47.1-.7.43-.81.9-.3,2.87,1.27,3.72,3.81.73,2.21.3,4.58-2.57,5.53Z"/>
  <path class="cls-1" d="M18.72,242.54c-1.58-1.33-2.75-2.94-3.25-5.1-.61-2.61-.02-4.55,2.97-5.25,1.68-.39,5.55-1.01,7.88-1.55,1.58-.37,2.17-.76,1.91-1.89-.27-1.13-1.04-1.35-1.16-1.86-.06-.27.1-.49.48-.58,1.34-.31,3.28,1.19,3.74,3.18.18.79.09,1.46-.17,2.06-.46,1.12-1.06,1.33-.97,1.75.04.17.4.45.83.75,1.36.88,2.27,2.29,2.68,4.04.49,2.09-.42,3.46-2.51,3.95-3.63.85-6.75-3.05-8.95-6.44-.23-.38-.5-.57-1.06-.51-.35.05-.66.12-1.04.21-2.2.51-3.16,1.35-2.76,3.03.31,1.34.92,1.92,1.69,2.28.73.34,1.61.24,2.29.37.93.11,1.85.94,2.12,2.11.1.45-.07.96-.65,1.09-1.13.26-2.7-.42-4.07-1.62ZM30.74,236.04c-.35-1.51-1.73-2.45-2.91-2.25-1.41.33-3.25.65-3.8.78-.44.1-.65.3-.58.61.23.96,2.85,4.29,5.42,3.69,1.51-.35,2.19-1.45,1.87-2.82Z"/>
  <path class="cls-1" d="M5.16,226.8c-.04.25-.01.5-.08.83-.01.18-.25.31-.49.34-.35.04-.6,0-.73-.16-.31-.5-.72-1.3-1.21-2.2-.72-1.3-1.25-1.95-1.31-2.47-.03-.28.15-.83.4-.86.46-.05,1.21,0,2.61-.12l5.93-.54c.91-.1,2.28-.23,2.98-.31.45-.05.61-.25.57-.63-.11-.98-1.66-1.76-1.99-4.7-.25-2.17.37-4.19,1.6-5.79,1.39-1.79,3.59-2.97,6.18-3.26,5.53-.64,9.22,4.04,9.66,7.86.39,3.39-.56,4.64-.44,5.76.06.49.99.63,1.77.86.29.07.6.29.66.78.06.56-.37.82-.93.89-.17.02-1.03.01-1.52.03-1.55.07-3.38.18-4.89.35l-17.6,2.03c-.8.09-1,.54-1.16,1.34ZM20.38,210.61c-2.03.23-3.49,1.08-4.45,2.32-1.42,1.83-1.49,4.6-1.3,6.28.17,1.47.77,1.79,1.96,1.65l7.45-.86c2.66-.31,4.03-2.59,3.73-5.15-.25-2.17-2.68-4.8-7.4-4.25Z"/>
  <path class="cls-1" d="M3.25,196.7c1.27-.03,2.34.87,2.37,2.14s-.98,2.27-2.21,2.3c-1.34.03-2.45-.83-2.47-2.1-.03-1.41,1.01-2.31,2.31-2.33ZM26.19,195.43c.12-1.02.33-1.17.86-1.18.49,0,.78.12.78.51.01.67-.1,2.04-.06,3.95.04,1.83.31,3.23.33,3.94.01.49-.27.67-.69.68-.53.01-.78-.23-.98-1.42-.2-1.23-.49-1.36-3.9-1.3l-6.09.12c-1.09.02-1.72.18-1.99.99l-.16.92c-.03.21-.31.32-.59.33-.32,0-.6-.06-.67-.2-.26-.59-.5-1.96-1.01-2.8-.55-1.01-1.72-1.41-1.74-2.4,0-.21.16-.57.69-.58.28,0,3.04.33,4.66.29l7.11-.14c3.17-.06,3.38-.28,3.45-1.72Z"/>
  <path class="cls-1" d="M26.65,183.9c.15-1.05.37-1.25.87-1.23.39.02.77.25.75.67-.03.7-.27,2.74-.34,4.36-.1,2.18.16,3.46.13,4.2-.02.49-.28.66-.8.63-.42-.02-.59-.27-.82-1.45-.21-1.49-.42-1.64-3.83-1.79l-18.04-.82c-.74-.03-1.07.23-1.35.96-.12.31-.16.49-.32.8-.08.17-.37.3-.65.29-.28-.01-.59-.1-.66-.28-.26-.54-.52-1.79-.86-2.72-.38-.97-.74-1.51-.72-2.08.03-.56.36-.97.89-.95.67.03,3.08.46,5.47.57l16.67.83c3.02.14,3.39-.06,3.61-1.99Z"/>
  <path class="cls-1" d="M4.76,171.25c1.26.14,2.21,1.17,2.07,2.43-.14,1.26-1.26,2.13-2.49,1.99-1.33-.15-2.32-1.14-2.18-2.41.16-1.4,1.3-2.16,2.6-2.01ZM27.67,172.99c.25-1,.48-1.12,1-1.06.49.06.75.23.71.61-.07.67-.37,2.01-.58,3.9-.2,1.82-.11,3.25-.19,3.95-.06.49-.35.63-.77.59-.52-.06-.74-.33-.79-1.54-.04-1.25-.3-1.42-3.7-1.79l-6.06-.67c-1.08-.12-1.73-.05-2.1.72l-.28.89c-.06.21-.35.28-.63.25-.32-.04-.59-.14-.64-.28-.18-.62-.24-2.01-.63-2.91-.41-1.07-1.52-1.62-1.41-2.6.02-.21.24-.54.76-.48.28.03,2.97.72,4.58.9l7.07.79c3.15.35,3.38.17,3.65-1.26Z"/>
  <path class="cls-1" d="M26.48,167.4c-3.91-.73-8.42-1.92-9.46-2.11-.66-.12-.79,0-.86.41-.05.28-.2.86-.25,1.17-.06.35-.35.54-.84.45-.45-.08-.66-.52-.72-1.5-.14-1.35-.94-2.68-2.73-3.8-.35-.24-.46-.59-.4-.93.1-.55.42-.71,1.11-.58l1.38.26c.76.14,1,.04,1.12-.62.14-.73.38-3.19.52-3.99.1-.52.22-.78,1.19-.6.9.17,1.35.64,1.25,1.2-.07.38-.9,3.31-1.02,3.97-.15.8.26,1.09,1.09,1.24,0,0,5.19,1.18,7.27,1.56,2.22.41,3.7.54,4.14-1.85.26-1.39-.13-1.99-.04-2.51.09-.48.43-.57.77-.5.94.17,1.9,2.5,1.41,5.13-.42,2.29-1.95,4.15-4.93,3.6Z"/>
  <path class="cls-1" d="M40.77,155.64c-.34,1.19-1.25,2.1-2.44,1.76-1.29-.37-1.82-1.47-1.52-2.52.19-.68.41-1.2.46-1.37.13-.47.05-.83-.65-1.46-1.08-.82-1.71-1.33-2.08-1.43-.44-.12-1.28-.14-2.76-.09-4.18.28-7.3.71-9.88.89-3.25.36-3.71.7-4.14,1.42-.42.69-.71.82-1.25.67-.51-.15-.58-.53-.45-1.01.18-.64.41-1.31.93-3.14.51-1.79.84-3.2,1.01-3.81.13-.44.44-.64.91-.51.47.14.62.4.42,1.36-.24.96-.1,1.36.51,1.54.47.14,1.03.11,2.2-.03l8-.58c.22-.01.36-.12.4-.25.05-.17-.06-.31-.21-.43l-5.73-4.56c-.77-.62-1.75-1.19-2.22-1.33-.58-.16-1.2-.05-1.51.67-.42.98-.67,1.2-1.14,1.07-.37-.11-.59-.39-.45-.86l.87-3.05c.34-1.19.37-1.43.55-2.08.15-.54.5-.59.8-.5.51.15.65.29.62,1.05-.09.71.16,1,2.92,3.39,2.81,2.34,9.53,7.94,14.01,11.34,1.86,1.44,2.22,2.35,1.8,3.84Z"/>
  <path class="cls-1" d="M32.9,122.02c.44-1,.75-1.86.95-2.31.2-.45.64-.83,1.09-.64.19.09.55.4.87.81.56.56,1.12,1.11.87,1.69-.31.71-.59,1.16-1,2.1-.63,1.42-.77,2.28-1.4,3.69-.2.45-.64.83-1.19.59-.22-.1-.55-.4-.95-.81-.58-.52-1.17-1.09-.84-1.84.2-.45,1.15-2.26,1.61-3.29Z"/>
  <path class="cls-1" d="M52.41,106.92c-1.23,1.76-2.06,3.46-2.51,4.09-.3.43-.68.43-1.14.1-.35-.24-.53-.84.03-1.83.95-1.61.67-2.07-1.67-3.7l-12.86-8.96c-2.49-1.73-3.05-1.78-3.7-.86-.44.64-.63,1.4-1.02,1.95-.42.61-.7.63-1.07.37-.43-.3-.56-.61-.42-1.19.28-.83,1-2.91,5.64-9.59,1.47-2.11,3.19-4.39,5.29-6.06,4.44-3.48,10.67-4.72,16.27-.81,5.35,3.72,6.18,9.62,4.78,14.27-.77,2.59-2.33,4.95-3.68,6.88-1.65,2.37-2.85,3.72-3.96,5.31ZM38.79,84.38c-2.13,1.52-2.78,2.44-4.59,5.05-.64.93-.56,1.42.46,2.12l14.74,10.26c2.31,1.61,4.44.65,6.29-2.01,3.34-4.8,2.64-11.51-3.31-15.65-4.25-2.96-9.81-2.49-13.6.23Z"/>
  <path class="cls-1" d="M76.23,88.57c-.84.9-2.07,1.3-2.97.46-.98-.91-.95-2.13-.21-2.93.48-.52.91-.88,1.03-1.01.34-.36.42-.71.09-1.6-.59-1.22-.92-1.96-1.2-2.22-.34-.31-1.07-.71-2.42-1.33-3.85-1.65-6.83-2.69-9.21-3.7-3.06-1.16-3.63-1.06-4.33-.61-.68.42-1.01.41-1.42.03-.39-.36-.28-.74.06-1.1.46-.49.96-.98,2.25-2.38,1.27-1.37,2.2-2.47,2.63-2.94.31-.34.68-.37,1.05-.04.36.34.37.63-.25,1.4-.64.75-.7,1.17-.24,1.6.36.34.87.57,1.98.97l7.39,3.11c.2.09.38.06.47-.04.12-.13.09-.3,0-.47l-3.04-6.67c-.41-.91-1.02-1.86-1.38-2.19-.44-.41-1.04-.58-1.65-.09-.82.68-1.14.76-1.5.43-.28-.26-.35-.61-.01-.97l2.16-2.32c.84-.9.98-1.11,1.44-1.6.38-.41.71-.3.94-.08.39.36.45.56.07,1.22-.4.59-.31.96,1.06,4.35,1.45,3.36,4.89,11.41,7.34,16.47,1,2.13.91,3.11-.14,4.24Z"/>
  <path class="cls-1" d="M75.97,56.74c.28-2.23.93-3.75,2.46-5.05,2.55-2.17,5.44-2.03,7.5.51l4.87,5.94c1.5,1.82,1.8,1.79,2.63,1.19.9-.58,1.2-.6,1.56-.17.32.38.27.7-.08.99-.48.41-1.45,1.01-2.88,2.22-1.42,1.21-2.06,2.03-2.57,2.47-.43.36-.72.24-1.04-.13-.3-.35-.25-.67.58-1.6.67-.85.57-1.18-1.57-3.75l-3.55-4.33c-1.68-2.04-3.72-1.55-5.25-.25-1.13.96-1.7,2.19-1.86,2.97-.13.34-.04,1.1.74,2.01l4.15,4.88c2.05,2.41,2.37,2.56,3.79,1.63.9-.58,1.19-.55,1.51-.18.32.38.3.67,0,.92-.54.46-1.88,1.27-3.32,2.51-1.4,1.19-1.91,1.99-2.42,2.43-.4.34-.72.24-1.02-.11-.3-.35-.27-.65.45-1.59.48-.64.46-.99-1.19-2.92l-3.61-4.24c-1.32-1.56-1.66-1.73-2.26-1.46-.31.12-.47.21-.75.36-.18.11-.47-.06-.65-.28-.16-.19-.36-.48-.21-.74.25-.63.65-1.52.88-2.5.23-1.31.12-2.04.12-2.41,0-.23-.02-.4.25-.63.32-.27.7-.27,1.08.19.16.19.24.39.56.82l.36.48c.29.4.7.33.74-.17Z"/>
  <path class="cls-1" d="M91.03,44.42c.69-1.94,1.79-3.6,3.63-4.83,2.23-1.48,4.26-1.61,5.96.94.96,1.44,2.89,4.84,4.22,6.84.9,1.35,1.47,1.77,2.44,1.12.97-.64.9-1.45,1.34-1.74.23-.16.5-.08.71.24.76,1.14.04,3.49-1.66,4.62-.67.45-1.34.6-1.99.57-1.21-.04-1.62-.53-1.97-.29-.15.1-.28.53-.41,1.04-.34,1.58-1.35,2.93-2.84,3.93-1.79,1.19-3.39.82-4.58-.97-2.07-3.11.49-7.39,2.89-10.65.27-.35.36-.66.11-1.17-.17-.31-.34-.58-.56-.9-1.25-1.88-2.37-2.48-3.81-1.52-1.14.76-1.48,1.53-1.54,2.38-.06.8.34,1.59.46,2.28.22.91-.23,2.06-1.23,2.73-.38.25-.92.27-1.25-.23-.64-.97-.56-2.68.09-4.38ZM101.32,53.39c1.29-.86,1.69-2.48,1.08-3.52-.8-1.2-1.75-2.81-2.06-3.28-.25-.38-.51-.51-.77-.33-.82.55-3.02,4.17-1.55,6.37.86,1.29,2.13,1.54,3.3.76Z"/>
  <path class="cls-1" d="M120.44,28.22c.22-.11.26-.44.41-.78.76-2.11,1.46-3.26,3.5-4.22,3.22-1.52,5.91-.26,7.33,2.81l3.38,7.32c.77,1.7,1.27,1.7,2.33,1.39.94-.33,1.28-.25,1.51.22.2.41.08.66-.33.86-.6.29-1.97.7-3.62,1.48-1.72.81-2.74,1.45-3.41,1.77-.45.21-.76.12-.97-.32-.21-.45-.02-.69.99-1.29,1.17-.75,1.22-1.12.08-3.54l-2.39-5.14c-1.2-2.63-2.39-3.9-5.12-2.6-1.59.75-2.24,1.6-2.59,2.43-.17.39-.22.85.41,2.34l3.07,6.65c.96,2.12,1.39,2.03,2.45,1.72.89-.26,1.3-.22,1.51.22.21.45.02.69-.33.86-.67.32-1.7.69-3.39,1.48-1.66.78-2.92,1.5-3.55,1.8-.45.21-.74.16-.97-.32-.2-.41-.05-.68.94-1.3,1.15-.7,1.28-1,.12-3.53l-2.63-5.73c-1.16-2.53-2.52-3.02-4.55-2.05-1.62.77-2.34,1.96-2.71,2.6-.33.54-.34,1.02.17,2.1l2.92,6.41c1.13,2.47,1.36,2.55,2.76,2.12.92-.28,1.19-.21,1.37.17.23.48.01.77-.34.94-.61.29-1.56.58-3.31,1.41-1.69.8-2.85,1.54-3.56,1.87-.45.21-.74.08-.91-.27-.2-.41.06-.77,1.06-1.55.69-.52.85-1.18-.33-3.74l-2.3-5.11c-.84-1.86-1.15-2.11-1.85-2.01l-.81.11c-.14.03-.33-.2-.48-.51-.14-.29-.19-.57-.08-.82.48-.46.98-.97,1.62-1.85.47-.73.58-1.48.8-1.86.12-.25.28-.4.56-.54.35-.17.71-.22.97.32.09.19.34.81.46,1.07l.2.41c.14.29.27.42.47.33.1-.05.16-.15.24-.31.79-2.05,1.49-3.35,3.37-4.24,1.88-.89,3.62-.58,4.95.35.23.16.45.14.58.08Z"/>
  <path class="cls-1" d="M139.86,9.98c.39,1.21-.15,2.49-1.35,2.89-1.21.39-2.46-.27-2.84-1.44-.42-1.27.08-2.58,1.29-2.98,1.34-.44,2.5.29,2.91,1.53ZM147.76,31.56c1.02-.18,1.21-.03,1.38.48.15.47.11.78-.26.9-.64.21-1.99.5-3.8,1.09-1.74.57-3,1.24-3.67,1.46-.47.15-.73-.06-.85-.46-.16-.5,0-.81,1.08-1.35,1.12-.55,1.16-.86.1-4.11l-1.89-5.79c-.34-1.04-.67-1.6-1.53-1.61l-.93.12c-.21.03-.4-.2-.49-.47-.1-.3-.12-.59,0-.7.49-.42,1.73-1.05,2.38-1.78.81-.82.85-2.06,1.79-2.36.2-.07.59,0,.75.49.09.27.57,3,1.07,4.54l2.21,6.76c.98,3.01,1.25,3.15,2.66,2.8Z"/>
  <path class="cls-1" d="M162.69,14.26c.23.99-.28,1.88-1.07,2.06-1.65.39-3.21-2.24-4.99-1.82-.82.19-2.02.8-2.76,2.1-.85,1.43-1.3,3.38-.55,6.57.5,2.12,1.58,3.32,2.99,4.21,1.42.79,3.21,1.01,4.71.66,1.54-.36,2.24-.93,2.53-1.21.31-.36.54-.63.91-.72.31-.07.56.23.63.5.18.75-1.88,3.38-5.27,4.18-1.85.44-3.98.29-5.78-.59-2-.97-3.72-2.74-4.39-5.55-1.23-5.21,2.18-10.54,7.45-11.78,2.98-.7,5.2-.18,5.58,1.4Z"/>
  <path class="cls-1" d="M184.65,21.35c.25,2.84.6,3.16,3.04,3.16,1.09-.03,1.3.27,1.34.77.04.39-.11.79-.7.84-.77.07-3.36.01-5.43.19-2.14.19-4.33.66-5.27.75-.7.06-.98-.23-1.02-.79-.04-.42.28-.87,1.39-1.04,2.62-.34,2.7-.63,2.42-3.82l-1.36-15.47c-.26-2.91-.39-3.18-2.26-3.2-1.13,0-1.55-.29-1.59-.74-.05-.53.13-.9.91-.96.88-.08,2.59-.26,4.73-.45,1.65-.14,4.66-.52,5.36-.58.42-.04.67.33.7.72.04.49-.25.73-1.2.88-2.61.51-2.73.74-2.47,3.65l1.42,16.1Z"/>
  <path class="cls-1" d="M198.78,10.95c1.69-1.48,3.18-2.19,5.19-2.15,3.34.07,5.42,2.08,5.28,5.36l-.3,7.67c-.08,2.36.16,2.54,1.18,2.63,1.05.16,1.3.34,1.29.91-.01.49-.26.7-.72.69-.63-.01-1.76-.21-3.62-.25-1.87-.04-2.89.15-3.56.14-.56-.01-.7-.3-.69-.79,0-.46.26-.66,1.5-.81,1.06-.19,1.21-.5,1.31-3.85l.22-5.6c.09-2.64-1.76-3.63-3.76-3.67-1.48-.03-2.72.51-3.37.99-.32.17-.76.79-.78,1.99l-.13,6.41c-.06,3.17.07,3.49,1.76,3.73,1.05.16,1.26.38,1.25.87,0,.49-.23.7-.61.69-.7-.01-2.25-.29-4.15-.33-1.83-.04-2.75.23-3.42.21-.53-.01-.7-.3-.69-.75,0-.46.23-.66,1.39-.89.78-.16.99-.44,1.05-2.97l.11-5.56c.04-2.04-.09-2.4-.72-2.59-.31-.11-.49-.15-.81-.23-.21-.04-.31-.36-.3-.64,0-.25.05-.6.33-.7.6-.3,1.49-.71,2.32-1.29,1.04-.82,1.44-1.45,1.69-1.73.14-.17.25-.31.6-.3.42,0,.7.26.69.86,0,.25-.08.46-.13.98l-.05.6c-.05.49.3.71.66.37Z"/>
  <path class="cls-1" d="M226.68,12.12c-.09.73-.4,2.86-.47,3.1-.06.21-.3.39-.54.36-.59-.08-.78-.81-.98-1.48-.28-1.46-.88-2.28-2.66-2.51-1.75-.22-2.73.5-2.9,1.86-.2,1.54,1.37,2.59,3.3,3.83,2.3,1.43,4.13,2.95,3.78,5.67-.35,2.69-2.4,5.41-7.43,4.76-2.79-.36-4.15-1.14-4.58-1.94-.29-.53.11-2.76.18-3.35.06-.45.38-.77.8-.71.49.06.55.39.68.8.45,1.73,1.22,3.46,3.39,3.74,1.92.25,3.27-.86,3.46-2.36.21-1.64-1.02-2.51-3.4-4.17-2.21-1.6-3.89-2.88-3.57-5.4.41-3.14,3.56-4.76,7.29-4.21,3.07.4,3.73,1.33,3.65,2Z"/>
  <path class="cls-1" d="M230.84,25.25c.84-3.89,2.16-8.36,2.38-9.39.14-.65.03-.79-.39-.88-.28-.06-.85-.22-1.16-.29-.34-.07-.53-.37-.43-.85.1-.45.53-.64,1.52-.68,1.35-.1,2.71-.86,3.88-2.62.25-.34.6-.45.94-.37.55.12.7.44.55,1.13l-.3,1.38c-.16.76-.07.99.58,1.13.72.16,3.18.47,3.97.64.52.11.78.24.57,1.2-.19.9-.68,1.33-1.23,1.21-.38-.08-3.28-.99-3.93-1.13-.79-.17-1.09.23-1.27,1.06,0,0-1.32,5.15-1.77,7.22-.47,2.2-.65,3.68,1.73,4.19,1.38.3,2-.07,2.51.04.48.1.55.44.48.79-.2.93-2.55,1.83-5.17,1.27-2.27-.49-4.09-2.07-3.46-5.03Z"/>
  <path class="cls-1" d="M248.57,17.67c1.95-.68,3.93-.87,6.04-.2,2.55.8,3.92,2.31,3.01,5.23-.52,1.65-1.96,5.29-2.68,7.57-.49,1.54-.45,2.26.66,2.61,1.11.35,1.69-.21,2.19-.05.27.08.37.34.26.71-.41,1.31-2.69,2.22-4.64,1.6-.77-.24-1.3-.67-1.69-1.2-.73-.97-.61-1.59-1.01-1.72-.17-.05-.59.11-1.06.33-1.45.73-3.13.79-4.84.25-2.05-.64-2.76-2.12-2.12-4.17,1.12-3.56,6.06-4.26,10.1-4.43.45,0,.74-.14.98-.65.14-.33.23-.63.35-1,.68-2.15.44-3.4-1.2-3.92-1.31-.41-2.12-.19-2.82.29-.66.46-1.03,1.26-1.48,1.78-.57.74-1.75,1.11-2.89.75-.44-.14-.79-.54-.61-1.12.35-1.11,1.73-2.11,3.46-2.68ZM248.05,31.31c1.48.46,2.99-.24,3.42-1.36.43-1.38,1.09-3.13,1.26-3.66.14-.44.08-.71-.23-.81-.94-.3-5.14.27-5.93,2.78-.46,1.48.13,2.63,1.48,3.05Z"/>
  <path class="cls-1" d="M269.04,14.02c-.2-.16-.42-.27-.67-.49-.15-.1-.14-.37-.04-.6.14-.32.31-.52.51-.54.58,0,1.48.05,2.51.08,1.48.05,2.31-.08,2.79.13.26.11.64.56.54.78-.19.42-.62,1.04-1.23,2.31l-2.56,5.38c-.37.84-.97,2.07-1.25,2.72-.19.42-.1.65.26.81.9.4,2.36-.53,5.06.68,1.99.89,3.42,2.45,4.16,4.33.83,2.11.72,4.6-.35,6.98-2.27,5.08-8.18,5.87-11.68,4.3-3.12-1.39-3.7-2.85-4.73-3.31-.45-.2-1.05.53-1.64,1.08-.21.21-.55.37-1,.17-.51-.23-.52-.73-.29-1.25.07-.16.51-.89.75-1.32.73-1.37,1.57-3,2.19-4.38l7.23-16.17c.33-.74.05-1.14-.56-1.68ZM275.19,35.36c.83-1.86.86-3.55.27-5.01-.85-2.15-3.2-3.63-4.74-4.32-1.35-.6-1.93-.25-2.42.85l-3.06,6.85c-1.09,2.44.17,4.78,2.52,5.83,1.99.89,5.49.14,7.43-4.2Z"/>
  <path class="cls-1" d="M285.26,48.11c.82.63.84.88.58,1.34-.24.43-.51.6-.84.41-.58-.33-1.71-1.13-3.36-2.07-1.59-.9-2.94-1.38-3.55-1.73-.43-.24-.44-.58-.23-.94.26-.46.6-.55,1.72-.12,1.16.46,1.42.28,3.1-2.69l3-5.3c.54-.95.73-1.57.16-2.21l-.71-.61c-.17-.13-.12-.43.02-.68.16-.28.36-.49.51-.48.64.08,1.94.57,2.92.56,1.15.04,2.09-.76,2.95-.27.18.1.4.43.14.89-.14.24-1.83,2.44-2.63,3.85l-3.51,6.19c-1.56,2.76-1.48,3.04-.28,3.85ZM295.88,27.74c-.62,1.1-1.94,1.57-3.05.95-1.1-.63-1.46-2-.85-3.07.66-1.16,1.96-1.68,3.07-1.05,1.22.69,1.47,2.05.83,3.18Z"/>
  <path class="cls-1" d="M294.96,54.37c.83.67.89.96.62,1.37-.21.32-.6.53-.95.3-.59-.38-2.23-1.62-3.59-2.5-1.83-1.19-3.07-1.61-3.69-2.02-.41-.27-.43-.57-.14-1.01.23-.35.53-.37,1.66.03,1.39.57,1.63.47,3.49-2.4l9.84-15.15c.4-.62.34-1.04-.15-1.65-.21-.26-.34-.39-.53-.68-.11-.15-.07-.47.08-.7.16-.24.39-.46.57-.43.6.05,1.8.46,2.78.63,1.03.16,1.68.13,2.16.43.47.31.65.8.37,1.25-.36.56-1.95,2.43-3.26,4.44l-9.15,13.96c-1.65,2.54-1.66,2.95-.12,4.12Z"/>
  <path class="cls-1" d="M303.83,60.83c.73.73.72.98.4,1.4-.3.39-.58.53-.89.3-.54-.4-1.55-1.34-3.07-2.48-1.46-1.1-2.74-1.75-3.3-2.17-.4-.3-.37-.63-.11-.97.32-.42.66-.47,1.73.11,1.09.6,1.37.46,3.43-2.27l3.66-4.87c.66-.87.93-1.46.45-2.18l-.63-.69c-.15-.16-.06-.44.11-.67.19-.25.42-.44.57-.41.63.16,1.85.82,2.82.93,1.13.19,2.17-.48,2.96.11.17.13.34.48.03.9-.17.23-2.13,2.19-3.11,3.48l-4.28,5.69c-1.91,2.53-1.87,2.83-.77,3.78ZM316.99,41.99c-.76,1.01-2.13,1.31-3.14.54-1.01-.76-1.19-2.17-.45-3.16.8-1.07,2.16-1.41,3.18-.65,1.13.85,1.19,2.22.41,3.26Z"/>
  <path class="cls-1" d="M309.25,62.64c2.62-3,5.93-6.27,6.63-7.07.44-.5.4-.68.09-.95-.21-.19-.64-.61-.88-.81-.27-.23-.29-.58.03-.95.3-.34.78-.3,1.66.14,1.24.56,2.78.56,4.66-.42.39-.18.74-.1,1.01.13.42.37.4.72-.06,1.25l-.92,1.06c-.51.58-.54.84-.04,1.28.56.49,2.55,1.95,3.17,2.48.4.35.56.59-.08,1.33-.6.69-1.24.83-1.67.46-.29-.25-2.39-2.46-2.89-2.9-.61-.53-1.07-.33-1.63.31,0,0-3.65,3.87-5.04,5.46-1.48,1.7-2.35,2.91-.51,4.5,1.06.93,1.78.9,2.18,1.25.37.32.27.65.04.92-.62.72-3.12.36-5.14-1.39-1.75-1.53-2.58-3.79-.59-6.07Z"/>
  <path class="cls-1" d="M312.1,80.92c-.85-.89-1.17-2.15-.28-3,.97-.92,2.19-.82,2.94-.03.49.51.82.97.95,1.09.34.36.69.47,1.59.19,1.26-.52,2.01-.8,2.29-1.06.33-.32.77-1.03,1.48-2.33,1.88-3.74,3.1-6.65,4.26-8.96,1.34-2.98,1.28-3.55.88-4.29-.38-.71-.35-1.03.06-1.42.38-.36.75-.23,1.09.13.46.48.92,1.02,2.23,2.4,1.29,1.35,2.33,2.35,2.77,2.81.32.33.33.71-.03,1.05-.36.34-.66.33-1.39-.33-.7-.69-1.13-.78-1.58-.34-.36.34-.62.83-1.09,1.92l-3.57,7.18c-.1.2-.08.37.01.47.12.13.3.11.47.04l6.84-2.62c.93-.35,1.91-.9,2.27-1.24.43-.41.65-1,.19-1.64-.63-.86-.69-1.19-.34-1.53.28-.27.63-.31.97.05l2.18,2.3c.85.89,1.04,1.05,1.51,1.53.39.41.26.73.03.95-.38.36-.58.41-1.22,0-.56-.44-.94-.37-4.4.79-3.44,1.24-11.68,4.17-16.89,6.31-2.19.87-3.16.72-4.22-.4Z"/>
  <path class="cls-1" d="M345.08,91.25c.64.89,1.23,1.59,1.51,1.99.29.4.39.97,0,1.26-.17.12-.63.27-1.14.34-.76.2-1.53.4-1.9-.11-.45-.63-.7-1.1-1.29-1.93-.9-1.26-1.57-1.82-2.47-3.08-.29-.4-.4-.97.09-1.32.2-.14.63-.28,1.18-.41.75-.23,1.54-.45,2.01.21.29.4,1.36,2.14,2.02,3.06Z"/>
</svg>